<?xml version="1.0" encoding="UTF-8" standalone="no"?>
<!-- Created with Inkscape (http://www.inkscape.org/) -->

<svg
   xmlns:dc="http://purl.org/dc/elements/1.1/"
   xmlns:cc="http://creativecommons.org/ns#"
   xmlns:rdf="http://www.w3.org/1999/02/22-rdf-syntax-ns#"
   xmlns:svg="http://www.w3.org/2000/svg"
   xmlns="http://www.w3.org/2000/svg"
   xmlns:sodipodi="http://sodipodi.sourceforge.net/DTD/sodipodi-0.dtd"
   xmlns:inkscape="http://www.inkscape.org/namespaces/inkscape"
   width="16px"
   height="16px"
   viewBox="0 0 16 16"
   version="1.1"
   id="SVGRoot"
   inkscape:version="0.92.4 (5da689c313, 2019-01-14)"
   sodipodi:docname="icon-source.svg">
  <defs
     id="defs3713" />
  <sodipodi:namedview
     id="base"
     pagecolor="#ffffff"
     bordercolor="#666666"
     borderopacity="1.0"
     inkscape:pageopacity="0.0"
     inkscape:pageshadow="2"
     inkscape:zoom="45.254834"
     inkscape:cx="7.6827027"
     inkscape:cy="8.5574778"
     inkscape:document-units="px"
     inkscape:current-layer="layer1"
     showgrid="false"
     inkscape:window-width="1920"
     inkscape:window-height="1057"
     inkscape:window-x="-8"
     inkscape:window-y="-8"
     inkscape:window-maximized="1"
     inkscape:grid-bbox="true" />
  <metadata
     id="metadata3716">
    <rdf:RDF>
      <cc:Work
         rdf:about="">
        <dc:format>image/svg+xml</dc:format>
        <dc:type
           rdf:resource="http://purl.org/dc/dcmitype/StillImage" />
        <dc:title />
      </cc:Work>
    </rdf:RDF>
  </metadata>
  <g
     inkscape:label="Layer 1"
     inkscape:groupmode="layer"
     id="layer1"
     style="display:inline">
    <path
       style="color:#000000;font-style:normal;font-variant:normal;font-weight:normal;font-stretch:normal;font-size:medium;line-height:normal;font-family:sans-serif;font-variant-ligatures:normal;font-variant-position:normal;font-variant-caps:normal;font-variant-numeric:normal;font-variant-alternates:normal;font-feature-settings:normal;text-indent:0;text-align:start;text-decoration:none;text-decoration-line:none;text-decoration-style:solid;text-decoration-color:#000000;letter-spacing:normal;word-spacing:normal;text-transform:none;writing-mode:lr-tb;direction:ltr;text-orientation:mixed;dominant-baseline:auto;baseline-shift:baseline;text-anchor:start;white-space:normal;shape-padding:0;clip-rule:nonzero;display:inline;overflow:visible;visibility:visible;opacity:1;isolation:auto;mix-blend-mode:normal;color-interpolation:sRGB;color-interpolation-filters:linearRGB;solid-color:#000000;solid-opacity:1;vector-effect:none;fill:#000000;fill-opacity:1;fill-rule:nonzero;stroke:#000000;stroke-width:0.4971168;stroke-linecap:round;stroke-linejoin:bevel;stroke-miterlimit:4;stroke-dasharray:none;stroke-dashoffset:0;stroke-opacity:1;color-rendering:auto;image-rendering:auto;shape-rendering:auto;text-rendering:auto;enable-background:accumulate"
       d="m 13.860818,2.5159401 c -0.110365,0.0054 -0.334989,0.066015 -0.409703,0.13242 C 12.631938,3.539214 10.343459,5.2987856 9.0833784,6.3701832 L 10.375026,6.2212365 c 1.257815,-1.0694709 2.707732,-2.3224396 3.83747,-3.0766222 0.269624,-0.2274796 0.0358,-0.6472082 -0.351678,-0.6286742 z"
       mask="none"
       id="path5070"
       inkscape:connector-curvature="0"
       inkscape:label="path5070"
       sodipodi:nodetypes="cccccc" />
    <path
       inkscape:connector-curvature="0"
       id="path3730-2"
       d="m 1.7680155,5.5464016 a 0.20002,0.20002 0 0 0 -0.1992187,0.203125 c -0.015845,2.9492145 2.8471487,5.3182094 6.3613281,5.3496094 3.5141791,0.0314 6.4379821,-2.2855993 6.5000001,-5.234375 A 0.20002,0.20002 0 1 0 14.031687,5.856951 C 13.97517,8.5441609 11.271113,10.728563 7.9340312,10.698745 4.596949,10.668927 1.954748,8.4390419 1.9691874,5.7514798 A 0.20002,0.20002 0 0 0 1.7680155,5.5464016 Z"
       style="color:#000000;font-style:normal;font-variant:normal;font-weight:normal;font-stretch:normal;font-size:medium;line-height:normal;font-family:sans-serif;font-variant-ligatures:normal;font-variant-position:normal;font-variant-caps:normal;font-variant-numeric:normal;font-variant-alternates:normal;font-feature-settings:normal;text-indent:0;text-align:start;text-decoration:none;text-decoration-line:none;text-decoration-style:solid;text-decoration-color:#000000;letter-spacing:normal;word-spacing:normal;text-transform:none;writing-mode:lr-tb;direction:ltr;text-orientation:mixed;dominant-baseline:auto;baseline-shift:baseline;text-anchor:start;white-space:normal;shape-padding:0;clip-rule:nonzero;display:inline;overflow:visible;visibility:visible;opacity:1;isolation:auto;mix-blend-mode:normal;color-interpolation:sRGB;color-interpolation-filters:linearRGB;solid-color:#000000;solid-opacity:1;vector-effect:none;fill:#000000;fill-opacity:1;fill-rule:nonzero;stroke:none;stroke-width:0.40000001;stroke-linecap:round;stroke-linejoin:round;stroke-miterlimit:4;stroke-dasharray:none;stroke-dashoffset:0;stroke-opacity:1;paint-order:normal;color-rendering:auto;image-rendering:auto;shape-rendering:auto;text-rendering:auto;enable-background:accumulate" />
    <path
       inkscape:connector-curvature="0"
       id="path3730-4-8-6"
       d="m 12.486765,8.4174954 a 0.140014,0.140014 0 0 0 -0.0957,0.044922 c -0.56143,0.5909195 -1.298497,1.0614456 -2.144531,1.3652343 a 0.140014,0.140014 0 1 0 0.09375,0.2636723 C 11.224089,9.7739711 11.999603,9.2815915 12.594187,8.6557766 A 0.140014,0.140014 0 0 0 12.486765,8.4174954 Z"
       style="color:#000000;font-style:normal;font-variant:normal;font-weight:normal;font-stretch:normal;font-size:medium;line-height:normal;font-family:sans-serif;font-variant-ligatures:normal;font-variant-position:normal;font-variant-caps:normal;font-variant-numeric:normal;font-variant-alternates:normal;font-feature-settings:normal;text-indent:0;text-align:start;text-decoration:none;text-decoration-line:none;text-decoration-style:solid;text-decoration-color:#000000;letter-spacing:normal;word-spacing:normal;text-transform:none;writing-mode:lr-tb;direction:ltr;text-orientation:mixed;dominant-baseline:auto;baseline-shift:baseline;text-anchor:start;white-space:normal;shape-padding:0;clip-rule:nonzero;display:inline;overflow:visible;visibility:visible;opacity:1;isolation:auto;mix-blend-mode:normal;color-interpolation:sRGB;color-interpolation-filters:linearRGB;solid-color:#000000;solid-opacity:1;vector-effect:none;fill:#000000;fill-opacity:1;fill-rule:nonzero;stroke:none;stroke-width:0.28;stroke-linecap:round;stroke-linejoin:round;stroke-miterlimit:4;stroke-dasharray:none;stroke-dashoffset:0;stroke-opacity:1;paint-order:normal;color-rendering:auto;image-rendering:auto;shape-rendering:auto;text-rendering:auto;enable-background:accumulate" />
    <path
       inkscape:connector-curvature="0"
       id="path3730-4-85-6"
       d="m 13.449656,6.8549954 a 0.140014,0.140014 0 0 0 -0.121094,0.095703 c -0.13718,0.3932425 -0.340824,0.7692867 -0.605469,1.1191407 a 0.14004384,0.14004384 0 1 0 0.222656,0.1699218 C 13.227117,7.8678 13.445022,7.4644961 13.592234,7.0424954 a 0.140014,0.140014 0 0 0 -0.142578,-0.1875 z"
       style="color:#000000;font-style:normal;font-variant:normal;font-weight:normal;font-stretch:normal;font-size:medium;line-height:normal;font-family:sans-serif;font-variant-ligatures:normal;font-variant-position:normal;font-variant-caps:normal;font-variant-numeric:normal;font-variant-alternates:normal;font-feature-settings:normal;text-indent:0;text-align:start;text-decoration:none;text-decoration-line:none;text-decoration-style:solid;text-decoration-color:#000000;letter-spacing:normal;word-spacing:normal;text-transform:none;writing-mode:lr-tb;direction:ltr;text-orientation:mixed;dominant-baseline:auto;baseline-shift:baseline;text-anchor:start;white-space:normal;shape-padding:0;clip-rule:nonzero;display:inline;overflow:visible;visibility:visible;opacity:1;isolation:auto;mix-blend-mode:normal;color-interpolation:sRGB;color-interpolation-filters:linearRGB;solid-color:#000000;solid-opacity:1;vector-effect:none;fill:#000000;fill-opacity:1;fill-rule:nonzero;stroke:none;stroke-width:0.28;stroke-linecap:round;stroke-linejoin:round;stroke-miterlimit:4;stroke-dasharray:none;stroke-dashoffset:0;stroke-opacity:1;paint-order:normal;color-rendering:auto;image-rendering:auto;shape-rendering:auto;text-rendering:auto;enable-background:accumulate" />
    <path
       inkscape:connector-curvature="0"
       id="path3730-4-2-7"
       d="m 2.8949686,7.6284329 a 0.140014,0.140014 0 0 0 -0.109375,0.2148437 c 0.6117209,1.0138791 1.6400489,1.8113206 2.9003907,2.2578124 a 0.14084185,0.14084185 0 1 0 0.09375,-0.2656248 C 4.573119,9.4080055 3.5972714,8.6491049 3.0238749,7.6987454 A 0.140014,0.140014 0 0 0 2.8949686,7.6284329 Z"
       style="color:#000000;font-style:normal;font-variant:normal;font-weight:normal;font-stretch:normal;font-size:medium;line-height:normal;font-family:sans-serif;font-variant-ligatures:normal;font-variant-position:normal;font-variant-caps:normal;font-variant-numeric:normal;font-variant-alternates:normal;font-feature-settings:normal;text-indent:0;text-align:start;text-decoration:none;text-decoration-line:none;text-decoration-style:solid;text-decoration-color:#000000;letter-spacing:normal;word-spacing:normal;text-transform:none;writing-mode:lr-tb;direction:ltr;text-orientation:mixed;dominant-baseline:auto;baseline-shift:baseline;text-anchor:start;white-space:normal;shape-padding:0;clip-rule:nonzero;display:inline;overflow:visible;visibility:visible;opacity:1;isolation:auto;mix-blend-mode:normal;color-interpolation:sRGB;color-interpolation-filters:linearRGB;solid-color:#000000;solid-opacity:1;vector-effect:none;fill:#000000;fill-opacity:1;fill-rule:nonzero;stroke:none;stroke-width:0.28;stroke-linecap:round;stroke-linejoin:round;stroke-miterlimit:4;stroke-dasharray:none;stroke-dashoffset:0;stroke-opacity:1;paint-order:normal;color-rendering:auto;image-rendering:auto;shape-rendering:auto;text-rendering:auto;enable-background:accumulate" />
    <path
       inkscape:connector-curvature="0"
       id="path5022-7"
       d="m 7.9984843,4.8999173 c -1.7259182,0 -3.2879555,0.073863 -4.4257813,0.1933593 -0.5689129,0.059748 -1.0315336,0.130518 -1.3632812,0.2128907 -0.1658738,0.041186 -0.2987164,0.083483 -0.40625,0.1386719 -0.053767,0.027595 -0.1019835,0.057496 -0.1464844,0.1035156 -0.044501,0.04602 -0.087891,0.1202208 -0.087891,0.2070312 0,0.08681 0.04339,0.1590584 0.087891,0.2050782 0.044501,0.04602 0.092718,0.075921 0.1464844,0.1035156 0.1075336,0.055189 0.2403762,0.097485 0.40625,0.1386718 0.3317476,0.082373 0.7943683,0.1531425 1.3632812,0.2128907 1.1378258,0.1194963 2.6998631,0.1933594 4.4257813,0.1933593 1.7259182,0 3.2879547,-0.073863 4.4257807,-0.1933593 0.568913,-0.059748 1.029581,-0.130518 1.361328,-0.2128907 0.165874,-0.041186 0.298717,-0.083483 0.40625,-0.1386718 0.05377,-0.027595 0.101984,-0.057496 0.146485,-0.1035156 0.0445,-0.04602 0.08984,-0.1182678 0.08984,-0.2050782 0,-0.08681 -0.04534,-0.1610115 -0.08984,-0.2070312 -0.0445,-0.04602 -0.09272,-0.075921 -0.146485,-0.1035156 C 14.08431,5.3896499 13.951467,5.3473536 13.785593,5.3061673 13.453846,5.2237946 12.993178,5.1530248 12.424265,5.0932766 11.286439,4.9737803 9.7244025,4.8999173 7.9984843,4.8999173 Z m 0,0.4003906 c 1.7145838,0 3.2679267,0.072161 4.3847647,0.1894531 0.55842,0.058646 1.007921,0.1309062 1.306641,0.2050782 0.0848,0.021056 0.123855,0.040093 0.181641,0.060547 -0.05774,0.020421 -0.09699,0.039529 -0.181641,0.060547 -0.29872,0.074172 -0.748221,0.1444789 -1.306641,0.203125 -1.116838,0.1172923 -2.6701809,0.1894531 -4.3847647,0.1894531 -1.7145838,0 -3.267927,-0.072161 -4.3847657,-0.1894531 C 3.0552993,5.9604118 2.6057982,5.8901049 2.307078,5.8159329 2.2224318,5.7949153 2.183173,5.7758073 2.1254374,5.755386 2.1832235,5.7349326 2.2222777,5.715895 2.307078,5.6948392 2.6057982,5.6206672 3.0552993,5.5484072 3.6137186,5.489761 4.7305573,5.3724688 6.2839005,5.3003079 7.9984843,5.3003079 Z"
       style="color:#000000;font-style:normal;font-variant:normal;font-weight:normal;font-stretch:normal;font-size:medium;line-height:normal;font-family:sans-serif;font-variant-ligatures:normal;font-variant-position:normal;font-variant-caps:normal;font-variant-numeric:normal;font-variant-alternates:normal;font-feature-settings:normal;text-indent:0;text-align:start;text-decoration:none;text-decoration-line:none;text-decoration-style:solid;text-decoration-color:#000000;letter-spacing:normal;word-spacing:normal;text-transform:none;writing-mode:lr-tb;direction:ltr;text-orientation:mixed;dominant-baseline:auto;baseline-shift:baseline;text-anchor:start;white-space:normal;shape-padding:0;clip-rule:nonzero;display:inline;overflow:visible;visibility:visible;opacity:1;isolation:auto;mix-blend-mode:normal;color-interpolation:sRGB;color-interpolation-filters:linearRGB;solid-color:#000000;solid-opacity:1;vector-effect:none;fill:#000000;fill-opacity:1;fill-rule:nonzero;stroke:none;stroke-width:0.39939454;stroke-linecap:round;stroke-linejoin:bevel;stroke-miterlimit:4;stroke-dasharray:none;stroke-dashoffset:0;stroke-opacity:1;paint-order:normal;color-rendering:auto;image-rendering:auto;shape-rendering:auto;text-rendering:auto;enable-background:accumulate" />
  </g>
</svg>
